PathFileType	4	(X/Y/Z)	RAnkleTrial14.trc
DataRate	CameraRate	NumFrames	NumMarkers	Units	OrigDataRate	OrigDataStartFrame	OrigNumFrames
50	100	5	33	m	100	67	       951
Frame#	Time	L_Toe			R_Toe			R_Shoulder			L_Heel			Neck			R_Heel			L_Shank_Lateral			R_Shank_Lateral			L_Midfoot_Superior			L_Elbow			R_Midfoot_Lateral			R_Midfoot_Superior			L_Shoulder			R_Thigh_Lateral			R_Elbow			Sacral			L_Thigh_Superior			R_Patella			R_Wrist			R_Shank_Superior			L_Wrist			R_Shank_Inferior			R_Thigh_Superior			R_Thigh_Inferior			L_Asis			L_Shank_Inferior			L_Midfoot_Lateral			Sternum			L_Shank_Superior			R_Asis			L_Patella			L_Thigh_Lateral			L_Thigh_Inferior			
		X1	Y1	Z1	X2	Y2	Z2	X3	Y3	Z3	X4	Y4	Z4	X5	Y5	Z5	X6	Y6	Z6	X7	Y7	Z7	X8	Y8	Z8	X9	Y9	Z9	X10	Y10	Z10	X11	Y11	Z11	X12	Y12	Z12	X13	Y13	Z13	X14	Y14	Z14	X15	Y15	Z15	X16	Y16	Z16	X17	Y17	Z17	X18	Y18	Z18	X19	Y19	Z19	X20	Y20	Z20	X21	Y21	Z21	X22	Y22	Z22	X23	Y23	Z23	X24	Y24	Z24	X25	Y25	Z25	X26	Y26	Z26	X27	Y27	Z27	X28	Y28	Z28	X29	Y29	Z29	X30	Y30	Z30	X31	Y31	Z31	X32	Y32	Z32	X33	Y33	Z33

67	   1.320	    0.70613486410183	    0.04208748260224	    0.37687821709600	    1.11303416338130	    0.10815516614547	    0.68872392285211	    0.46144383570037	    1.43926870342424	    0.51501360839406	    0.41506089392215	    0.03318138406972	    0.42702273538572	    0.42752956097306	    1.46374354020593	    0.36846845428922	    0.82273142798387	    0.17352405998713	    0.66649945128602	    0.48468151038519	    0.32544052200966	    0.29337632584614	    0.75344763822545	    0.43609998524992	    0.69663094454172	    0.58641116199572	    0.09016606685146	    0.39017862200893	    0.36251868860058	    1.11957583148927	    0.09884991533668	    0.90674585490869	    0.15960949365651	    0.72858761139166	    1.00482729059080	    0.19058984955360	    0.67448024165017	    0.47160049149492	    1.43290128277856	    0.22298784823215	    0.63699067011835	    0.72888048491728	    0.63596043612151	    0.55907597538029	    1.13081711231312	    0.64856556401813	    0.42156184335939	    0.96797635369339	    0.37623968128979	    0.66971109501716	    0.73683777358936	    0.30124894443472	    0.78565501609526	    0.60959501514719	    0.60190639166630	    0.64645759804682	    1.26899168717625	    0.45897281457237	    0.80916774411758	    0.50603717082103	    0.64171083350852	    0.53514360810097	    1.01140444846407	   -0.05986912619639	    0.88323184264873	    0.34678155311715	    0.66581012209230	    0.69552976029619	    0.80206202597233	    0.57264980243436	    0.73969618142826	    0.69965932442917	    0.58184580022543	    0.62224027305911	    0.96556085554835	    0.27514645883620	    0.55208088797098	    0.22938467394902	    0.36442657865643	    0.49071765256479	    0.02717387520172	    0.35932623179554	    0.56937482445904	    1.37557069070355	    0.37830140159596	    0.57801239685325	    0.38033982677307	    0.33297636766333	    0.56063753655450	    0.99710235973625	    0.52912908741624	    0.62385004306983	    0.48906638078895	    0.34378239540785	    0.57149645080232	    0.65608390261666	    0.25596633689509	    0.64918357540518	    0.60757958583523	    0.32154914247265
68	   1.340	    0.70613867882477	    0.04209332795187	    0.37689254539180	    1.11156585329054	    0.10505006025201	    0.68525517113467	    0.46151645617210	    1.43922669419014	    0.51491037188290	    0.41506400623853	    0.03319938913615	    0.42702270233835	    0.42750947390597	    1.46364815415873	    0.36837486754407	    0.82171665213606	    0.17368154719613	    0.66729271274938	    0.48458294453709	    0.32549800756831	    0.29321649457117	    0.75407045904993	    0.43620323227652	    0.69654616149347	    0.58641659333127	    0.09017202893746	    0.39014355590593	    0.36250574397952	    1.11943747716411	    0.09881012397556	    0.90643682260739	    0.15872304998631	    0.72817644135865	    1.00409872049653	    0.18888218611825	    0.67283119772037	    0.47152719707789	    1.43280511335672	    0.22288903444893	    0.63788374018511	    0.72886627811398	    0.63562236953168	    0.55941981349834	    1.13087508971364	    0.64848354707635	    0.42185161701912	    0.96792070375055	    0.37627415829191	    0.66986741751749	    0.73681313203670	    0.30059235401154	    0.78624811010975	    0.60920874834057	    0.60107419804183	    0.64663473739727	    1.26904956580441	    0.45881032285658	    0.80970420066467	    0.50566310346035	    0.64088790090494	    0.53508611475345	    1.01124932165428	   -0.05993982012198	    0.88320218652219	    0.34613672011866	    0.66510479314382	    0.69631774053646	    0.80185830080437	    0.57200646984642	    0.74031480472790	    0.69935085025192	    0.58115122988617	    0.62233535611014	    0.96552451674325	    0.27480416039607	    0.55208979374349	    0.22934806889222	    0.36412508786627	    0.49072950808899	    0.02717424052790	    0.35933509509846	    0.56943509237503	    1.37558407194770	    0.37813571397175	    0.57811965602765	    0.38023696158853	    0.33258879188872	    0.56125844585312	    0.99710877935405	    0.52886234123249	    0.62417270744092	    0.48898102345151	    0.34323939544182	    0.57153708694085	    0.65606377018143	    0.25565735100942	    0.64958357881113	    0.60762361851776	    0.32093639597319
69	   1.360	    0.70614364224231	    0.04208843151318	    0.37690307812249	    1.11010309090425	    0.10199597334763	    0.68155689205769	    0.46158909676776	    1.43916599046232	    0.51483288450969	    0.41506934992087	    0.03321669280078	    0.42702668253731	    0.42746821849794	    1.46353295540488	    0.36830480431622	    0.82075989293804	    0.17372739451729	    0.66805683015018	    0.48456124651949	    0.32553353325655	    0.29312433661031	    0.75477729352279	    0.43626372834265	    0.69639420999546	    0.58642383712229	    0.09017142272340	    0.39012204657866	    0.36252569741572	    1.11924387135217	    0.09882066613781	    0.90619753830162	    0.15774724747435	    0.72765532388692	    1.00336156791066	    0.18713576568420	    0.67101328829584	    0.47141621698499	    1.43269102912316	    0.22281219705919	    0.63888148652615	    0.72883351573530	    0.63526641225815	    0.55984030783567	    1.13093140055835	    0.64840720790524	    0.42219904307324	    0.96785687866884	    0.37634024503918	    0.67007406767947	    0.73677343425444	    0.30007175877341	    0.78690551047854	    0.60877108196815	    0.60015449510386	    0.64683784401848	    1.26911945698631	    0.45864395202501	    0.81030549791759	    0.50523257649205	    0.63996900696702	    0.53508410908453	    1.01107996819890	   -0.05996309406974	    0.88320749125721	    0.34541897698442	    0.66428209843507	    0.69718391946894	    0.80162558090094	    0.57131710074222	    0.74100106740175	    0.69900204080867	    0.58039159115185	    0.62250267112866	    0.96548134249962	    0.27449473086732	    0.55212775929544	    0.22931739903417	    0.36392183105038	    0.49074087303662	    0.02717974122969	    0.35934322953353	    0.56948807190631	    1.37559655851070	    0.37797943965330	    0.57824788641218	    0.38016345318134	    0.33230742829156	    0.56194362307952	    0.99710645104606	    0.52862464641469	    0.62445519483381	    0.48890517704878	    0.34282695481793	    0.57163649410435	    0.65603678523462	    0.25541268431576	    0.64999663426739	    0.60766259527977	    0.32047556321412
70	   1.380	    0.70614997589898	    0.04207135332581	    0.37690897832536	    1.10868858044840	    0.09904170171148	    0.67764200961774	    0.46167332778485	    1.43909267902871	    0.51478607841876	    0.41507702255446	    0.03323279411185	    0.42703374096032	    0.42741359618145	    1.46340488483897	    0.36826401377699	    0.81989387284604	    0.17368301586584	    0.66880336749133	    0.48460232687363	    0.32554643768187	    0.29309534131762	    0.75556851190870	    0.43629348460824	    0.69618589939546	    0.58643300729284	    0.09016371436240	    0.39011277165457	    0.36257759779799	    1.11900800226474	    0.09888508111312	    0.90606374099452	    0.15670879448102	    0.72703586585690	    1.00264989393219	    0.18539152980541	    0.66904380007107	    0.47127457618176	    1.43256897241249	    0.22276060341320	    0.63997588549555	    0.72879521141583	    0.63490204642805	    0.56035010106890	    1.13099020528630	    0.64833636859739	    0.42260039948506	    0.96779436758999	    0.37643732006820	    0.67031755150948	    0.73671445302863	    0.29969709517049	    0.78761776943329	    0.60829700614619	    0.59915910937212	    0.64707488628792	    1.26920869773453	    0.45847278019143	    0.81096474868450	    0.50476365365670	    0.63897249930758	    0.53513289091498	    1.01090986357566	   -0.05994043205003	    0.88325953047375	    0.34465456725362	    0.66335841914505	    0.69811447530270	    0.80137157047273	    0.57058003305321	    0.74174412545399	    0.69862378648329	    0.57957111951698	    0.62274130504743	    0.96542870552846	    0.27421831979963	    0.55218663971466	    0.22929284399352	    0.36381411589282	    0.49075098280724	    0.02718905877988	    0.35934981705815	    0.56954077859653	    1.37561449877867	    0.37783479861892	    0.57838011427116	    0.38012111056741	    0.33213270145881	    0.56269108980248	    0.99709634062629	    0.52841526222166	    0.62467492147644	    0.48884056907653	    0.34254835612131	    0.57177996193785	    0.65600406505192	    0.25523278866528	    0.65037769542621	    0.60768048077794	    0.32017026139562
71	   1.400	    0.70615764962960	    0.04204227039867	    0.37691014407827	    1.10736383500627	    0.09623896954973	    0.67353717543149	    0.46177935329117	    1.43901586307734	    0.51477195716021	    0.41508697379580	    0.03324741168201	    0.42704263881359	    0.42735499773611	    1.46327293843002	    0.36825562457655	    0.81915388320641	    0.17357580838002	    0.66953461010036	    0.48468556673493	    0.32553966242017	    0.29311750727100	    0.75643702104732	    0.43630421692634	    0.69593097271037	    0.58644418001060	    0.09014967656309	    0.39011310783529	    0.36265923771317	    1.11874704811230	    0.09900270730766	    0.90606916704229	    0.15564159761613	    0.72633261181354	    1.00199998177657	    0.18369465737022	    0.66694825808895	    0.47111324464541	    1.43245053655911	    0.22273516666910	    0.64114916700312	    0.72876281862794	    0.63454288807225	    0.56095280568923	    1.13105784475201	    0.64827184998592	    0.42304699788503	    0.96774378154025	    0.37656384565015	    0.67058164122065	    0.73663491109238	    0.29945573200546	    0.78836950934350	    0.60780396712709	    0.59810720255892	    0.64735093498728	    1.26932480658477	    0.45829823642698	    0.81166925900468	    0.50427746639887	    0.63792346141295	    0.53522543512410	    1.01075358551482	   -0.05987643023245	    0.88336940585531	    0.34387478210975	    0.66235607793803	    0.69908923692410	    0.80110419701113	    0.56980268242404	    0.74252714157277	    0.69822798560751	    0.57870234297852	    0.62304196021970	    0.96536582402071	    0.27397177565364	    0.55225669763007	    0.22927433577035	    0.36378801798013	    0.49075955539679	    0.02720082687162	    0.35935437712363	    0.56960106873628	    1.37564545248622	    0.37770369816984	    0.57850089334519	    0.38010818984501	    0.33205147286924	    0.56349468735027	    0.99708120038483	    0.52823126422540	    0.62481970535506	    0.48878765842305	    0.34239018455559	    0.57194719544127	    0.65596806846882	    0.25511077725148	    0.65068935077716	    0.60766417654504	    0.32000134533920
